<?xml version="1.0" encoding="UTF-8" standalone="no"?>
<!-- Created with Inkscape (http://www.inkscape.org/) -->

<svg xmlns:dc="http://purl.org/dc/elements/1.1/" xmlns:cc="http://creativecommons.org/ns#" xmlns:rdf="http://www.w3.org/1999/02/22-rdf-syntax-ns#" xmlns:svg="http://www.w3.org/2000/svg" xmlns="http://www.w3.org/2000/svg" xmlns:sodipodi="http://sodipodi.sourceforge.net/DTD/sodipodi-0.dtd" xmlns:inkscape="http://www.inkscape.org/namespaces/inkscape" width="64" height="64" id="svg4312" version="1.1" inkscape:version="0.91 r13725" viewBox="0 0 64 64" sodipodi:docname="thumbs-up.svg">
   <defs id="defs4314" />
   <sodipodi:namedview id="base" pagecolor="#ffffff" bordercolor="#666666" borderopacity="1.0" inkscape:pageopacity="0.0" inkscape:pageshadow="2" inkscape:zoom="5.5" inkscape:cx="20.181818" inkscape:cy="39.272727" inkscape:current-layer="layer1" showgrid="true" inkscape:document-units="px" inkscape:grid-bbox="true" inkscape:window-width="1280" inkscape:window-height="752" inkscape:window-x="0" inkscape:window-y="0" inkscape:window-maximized="1" />
   <metadata id="metadata4317">
      <rdf:RDF>
         <cc:Work rdf:about="">
            <dc:format>image/svg+xml</dc:format>
            <dc:type rdf:resource="http://purl.org/dc/dcmitype/StillImage" />
            <dc:title></dc:title>
         </cc:Work>
      </rdf:RDF>
   </metadata>
   <g id="layer1" inkscape:label="Layer 1" inkscape:groupmode="layer">
      <path style="fill:black;stroke:none;fill-opacity:1" d="m 22.31812,61.909993 c -2.748217,-0.543405 -4.297016,-2.268044 -4.297016,-4.784867 c 0,-0.575176 -0.145992,-0.749935 -0.723785,-0.866401 c -0.398081,-0.08024 -1.256753,-0.408201 -1.908158,-0.728799 c -1.45248,-0.714854 -2.36875,-2.316023 -2.36875,-4.139349 c 0,-1.171092 -0.03604,-1.225267 -1.186913,-1.784406 C 9.6960696,48.567727 8.8679335,46.194453 9.7688885,43.689406 l 0.4947835,-1.375715 l -0.8593749,-1.2775 C 8.9316408,40.333564 8.3533781,39.099798 8.1192683,38.29449 C 6.4409656,32.521331 11.725309,28.255772 21.137357,27.786202 l 3.247848,-0.162039 L 24.206624,26.433311 C 23.88058,24.259078 22.988282,21.824365 21.15248,18.099809 C 20.153589,16.073212 19.145497,13.649544 18.912274,12.71388 C 17.87273,8.5432891 19.721803,4.4439679 23.358257,2.8573147 c 1.318833,-0.5754311 3.87933,-1.3148154 3.99357,-1.1532072 c 0.03019,0.042707 0.561648,2.38718 1.181019,5.2099401 l 1.126127,5.1322904 l 4.458694,4.737499 c 2.452285,2.605624 5.864223,6.573279 7.582081,8.817012 c 1.717862,2.243731 3.495977,4.434825 3.951372,4.869096 l 0.827986,0.789583 l 3.991245,0.131597 l 3.991246,0.131597 l 0.706158,1.842361 c 2.135696,5.572019 2.204287,12.389228 0.185366,18.423606 l -0.616399,1.842361 l -3.507705,0.07358 l -3.507706,0.07358 l -1.756183,1.779644 c -1.976202,2.002601 -4.9728,4.317951 -7.185148,5.551677 c -1.971388,1.09935 -4.028307,1.290434 -7.550719,0.701445 c -2.408639,-0.402756 -2.725346,-0.405961 -3.443025,-0.03483 c -0.858468,0.443932 -3.564863,0.510179 -5.468116,0.133848 z m 16.543893,-3.195878 c 1.449256,-0.962541 3.558854,-2.738275 5.159199,-4.342707 l 2.707404,-2.714316 l 3.250814,0 l 3.250813,0 l 0.621642,-2.434548 c 0.894611,-3.50358 0.864805,-9.267045 -0.06568,-12.699129 L 53.144016,34.154666 L 50.124048,33.94574 c -1.66098,-0.114911 -3.450852,-0.323172 -3.977487,-0.462804 C 44.85478,33.140435 43.632201,31.894124 40.33265,27.556167 c -1.533679,-2.016346 -4.981341,-6.002779 -7.661471,-8.858741 c -2.680131,-2.855964 -4.932954,-5.402369 -5.006277,-5.65868 c -0.07333,-0.25631 -0.517266,-2.242582 -0.986543,-4.4139346 C 26.209083,6.4534571 25.798345,4.6393231 25.765606,4.5934009 c -0.03274,-0.045918 -0.644541,0.2129566 -1.359561,0.5752853 C 20.837986,6.976758 19.907897,10.678949 22.007362,14.716562 c 0.515942,0.992244 1.532149,2.950234 2.258231,4.351087 c 1.483459,2.862074 2.334617,5.705001 2.594128,8.664579 l 0.175354,1.99978 l -3.651604,0.183286 c -6.103738,0.306367 -9.285565,1.015704 -11.388144,2.538805 c -1.368995,0.991693 -1.871448,1.99625 -1.864274,3.727253 c 0.0076,1.833794 0.692753,3.275439 2.178031,4.582833 c 1.50038,1.320686 2.671146,1.681103 5.460838,1.681103 c 2.115267,0 2.326464,-0.05913 6.345601,-1.776561 c 2.28663,-0.97711 4.160355,-1.912339 4.163835,-2.07829 c 0.0091,-0.43029 -1.771132,-1.935167 -2.795417,-2.363141 c -1.311323,-0.547905 -3.331659,-0.436406 -5.542987,0.305912 c -1.094104,0.367278 -2.477017,0.7323 -3.07314,0.811158 c -1.017206,0.134561 -1.156023,0.06921 -2.257237,-1.062571 l -1.173376,-1.205949 l 1.799519,0 c 1.295607,0 2.324342,-0.194447 3.67372,-0.694399 c 2.694313,-0.998254 5.487108,-0.998212 7.664482,1.13e-4 c 1.915163,0.878101 2.780824,1.65678 4.124087,3.709694 l 1.025871,1.56784 l -0.793431,0.4103 l -0.793431,0.410296 l 1.2366,0.917001 c 1.080622,0.801334 3.227733,3.433399 3.227733,3.956757 c 0,0.102468 -0.355313,0.333488 -0.789584,0.513368 c -0.957004,0.396405 -0.983555,0.601946 -0.148442,1.149135 c 0.585118,0.383385 3.04358,3.571058 3.04358,3.946345 c 0,0.08774 -0.602526,0.464862 -1.338946,0.838034 l -1.338946,0.678497 l 1.309882,1.385005 c 0.720434,0.761755 1.553894,1.863311 1.852131,2.447908 l 0.542252,1.062898 l -2.684539,1.133207 c -1.476497,0.623265 -2.740331,1.179037 -2.808516,1.23505 c -0.355715,0.292214 0.857298,0.592026 2.409679,0.595582 c 1.719127,0.004 1.815317,-0.03316 4.211111,-1.624362 z m -8.273377,-0.507678 c 2.062785,-0.887339 3.75052,-1.695906 3.75052,-1.796818 c 0,-0.299912 -1.849554,-2.369107 -2.363486,-2.644153 c -0.361778,-0.193619 -1.248325,0.08769 -3.727299,1.182699 c -3.124135,1.379987 -3.343584,1.436933 -5.555566,1.441584 l -2.302952,0.0049 l 0,0.731019 c 0,1.759152 1.509196,2.663812 4.474305,2.682038 c 1.846446,0.01134 2.216231,-0.09208 5.724478,-1.601211 z m -1.914624,-5.920326 c 2.464424,-1.101608 4.526423,-2.04541 4.58222,-2.09734 c 0.226771,-0.211051 -0.762753,-1.357526 -1.780321,-2.0627 l -1.084579,-0.751615 l -3.618967,1.617778 l -3.618971,1.617776 l -3.882117,-0.0029 l -3.882116,-0.0029 l 0,0.875303 c 0,1.841748 2.079026,2.761517 6.3102,2.791655 l 2.493885,0.01776 l 4.480766,-2.002925 z m -2.596883,-5.389497 c 2.010868,-0.881181 4.06231,-1.772304 4.558758,-1.980272 l 0.902631,-0.378124 L 30.54439,43.520138 C 29.99762,42.960195 29.088288,42.293737 28.52366,42.039124 L 27.497057,41.576193 L 23.75911,43.230222 L 20.021165,44.88425 L 17.37617,44.74437 c -1.454747,-0.07693 -3.174062,-0.324607 -3.820699,-0.550391 c -0.904333,-0.31576 -1.223804,-0.337139 -1.384097,-0.09262 c -1.106555,1.687979 0.153537,3.610995 2.691795,4.107932 c 0.651188,0.127489 2.618095,0.244773 4.370906,0.260633 l 3.186929,0.02883 l 3.656125,-1.602145 z" id="path4892" inkscape:connector-curvature="0" />
      <path style="fill:none;stroke:none" d="m 22.866307,59.262368 c -2.483812,-0.491123 -3.8836,-2.049835 -3.8836,-4.324513 c 0,-0.51984 -0.131946,-0.677785 -0.654149,-0.783045 c -0.359783,-0.07252 -1.135841,-0.368929 -1.724576,-0.658681 c -1.307829,-0.643664 -2.140497,-2.093577 -2.14154,-3.729036 c -6.66e-4,-1.043667 -0.03789,-1.099225 -1.121663,-1.674172 C 12.724242,47.765847 12.024956,47.160683 11.786808,46.748112 C 11.147178,45.640009 11.000179,43.83166 11.443879,42.529473 L 11.81555,41.438678 L 11.019792,40.11719 C 9.0184805,36.793684 9.4053812,33.138341 11.983393,31.013325 c 2.167033,-1.786251 5.586354,-2.856413 9.798275,-3.066613 l 2.9179,-0.145623 L 24.54464,26.945407 c -0.346174,-1.911945 -1.174281,-4.11822 -2.731827,-7.27824 C 19.894141,15.774479 19.340979,13.865659 19.538122,11.817791 C 19.925157,7.7973635 22.078864,5.5233591 26.417685,4.5539564 C 27.170763,4.3857 27.821601,4.2919775 27.863995,4.3456841 c 0.04239,0.053707 0.535082,2.184979 1.094862,4.7361607 l 1.017782,4.6385122 l 4.029723,4.281703 c 2.216351,2.354937 5.300024,5.940864 6.852608,7.968726 c 1.552586,2.027863 3.159628,4.008151 3.571209,4.40064 l 0.748325,0.713617 l 3.607248,0.118937 l 3.607247,0.118936 l 0.638219,1.665107 c 1.073447,2.800617 1.467646,5.138777 1.463795,8.682343 c -0.0037,3.407104 -0.336703,5.576431 -1.296264,8.444471 l -0.557095,1.665107 l -3.170228,0.0665 l -3.170228,0.0665 l -1.58722,1.608425 c -1.794745,1.81872 -4.495768,3.90321 -6.522643,5.033789 c -1.746526,0.974204 -4.066374,1.180853 -7.175252,0.639168 c -1.854889,-0.323195 -2.202968,-0.326504 -2.783189,-0.02646 c -0.728541,0.376745 -3.67663,0.428658 -5.366587,0.0945 z m 4.977664,-0.615143 c 0.695786,-0.359806 0.942595,-0.357629 3.415802,0.0301 c 3.455592,0.54174 4.76199,0.384059 6.829917,-0.824368 c 2.159249,-1.261794 4.265183,-2.910119 6.148543,-4.812502 l 1.58722,-1.603253 l 3.170228,-0.0665 l 3.170228,-0.0665 l 0.557095,-1.665107 C 54.52323,44.258377 54.462972,38.44042 52.555473,33.463768 L 51.917254,31.798661 L 48.310007,31.679724 L 44.70276,31.560788 l -0.748326,-0.713617 c -0.411581,-0.39249 -2.018623,-2.372777 -3.571209,-4.40064 C 38.830641,24.418669 35.746249,20.832742 33.529026,18.477805 L 29.497707,14.196102 L 28.47051,9.5332113 L 27.443312,4.8703208 l -1.079719,0.2848244 c -3.83226,1.0109313 -5.768922,3.0559181 -6.327754,6.6816898 c -0.230453,1.4952 0.434172,3.665037 2.252719,7.354588 c 1.74825,3.546928 2.550877,5.810383 2.794044,7.879376 l 0.150288,1.278712 l -1.876261,0.0047 c -5.508647,0.01384 -10.307557,1.82305 -12.150648,4.580859 c -1.398192,2.09211 -1.2205046,4.481395 0.526318,7.077164 l 0.838325,1.245745 l -0.494347,1.32126 c -0.831255,2.221726 -0.155599,4.142117 1.789879,5.087304 c 1.040151,0.505345 1.07272,0.554309 1.07272,1.612729 c 0,1.647904 0.828115,3.095025 2.140851,3.741103 c 0.588735,0.289752 1.364793,0.586158 1.724575,0.658681 c 0.522204,0.105261 0.65415,0.263206 0.65415,0.783045 c 0,1.650425 0.823404,3.052831 2.218493,3.778496 c 1.552003,0.807287 4.957949,1.031857 6.167026,0.406619 z m 4.281187,-0.959073 c -0.66698,-0.269131 -0.269835,-0.923371 0.833445,-1.372983 c 0.620952,-0.253053 1.69378,-0.707875 2.384067,-1.010715 l 1.255063,-0.55062 l -0.392766,-0.759529 c -0.216024,-0.41774 -0.914605,-1.311293 -1.552405,-1.985673 c -0.6378,-0.67438 -1.159638,-1.350997 -1.159638,-1.503594 c 0,-0.152598 0.481692,-0.511471 1.070426,-0.797501 c 0.588734,-0.286029 1.070426,-0.593991 1.070426,-0.684359 c 0,-0.34124 -2.139762,-3.053787 -2.605619,-3.303106 c -0.666428,-0.356663 -0.611643,-1.061955 0.107959,-1.389829 c 0.327074,-0.149024 0.592026,-0.35353 0.588784,-0.454457 c -0.01489,-0.46343 -1.789105,-2.544655 -2.741651,-3.216071 C 29.770081,39.804595 29.677061,39.4809 30.53249,39.091141 l 0.60765,-0.276864 l -0.429245,-0.743485 c -2.222038,-3.848723 -6.195097,-5.249639 -10.44867,-3.684239 c -1.106993,0.407397 -2.173981,0.623385 -3.079535,0.623385 l -1.38565,0 l 0.819748,0.847169 c 0.939865,0.971299 1.19582,0.969078 4.191903,-0.03641 c 1.939025,-0.650738 4.181003,-0.752907 5.394597,-0.245837 c 1.151265,0.481031 2.533125,1.77931 2.526469,2.373656 c -0.0048,0.431434 -0.58813,0.759443 -3.763232,2.11621 c -3.740517,1.598377 -3.767535,1.605639 -5.972962,1.605639 c -2.761764,0 -3.790459,-0.302119 -5.173322,-1.519365 c -1.410978,-1.241991 -1.961816,-2.467584 -1.968483,-4.37979 c -0.0063,-1.815526 0.393273,-2.670867 1.684912,-3.606527 c 1.899653,-1.376101 4.776309,-2.017676 10.286826,-2.294253 l 3.294621,-0.165357 l -0.157954,-1.569803 c -0.253615,-2.520511 -1.053685,-5.123717 -2.33375,-7.59338 c -0.656226,-1.266077 -1.577829,-3.042069 -2.048005,-3.946649 c -0.700813,-1.348304 -0.870566,-1.955576 -0.941982,-3.369836 c -0.102649,-2.03272 0.216128,-3.159984 1.215475,-4.2981764 C 23.552528,8.1292599 25.539308,6.940993 26.172886,6.940993 c 0.204489,0 0.578422,1.2566339 1.114834,3.746491 c 0.443927,2.060569 0.906168,3.942494 1.027202,4.182054 c 0.121037,0.239559 2.148428,2.487454 4.505321,4.99532 c 2.356889,2.507867 5.418833,6.050773 6.804319,7.873125 c 2.980068,3.919736 4.085535,5.046911 5.253393,5.356554 c 0.475969,0.126199 2.093637,0.314422 3.594814,0.418277 l 2.729414,0.188826 l 0.581641,2.140852 c 0.497556,1.831353 0.584412,2.691072 0.600799,5.94681 c 0.01641,3.261857 -0.06116,4.120519 -0.542675,6.006279 L 51.280115,49.9959 l -2.938052,0 l -2.938053,0 l -2.446925,2.453172 c -1.446376,1.45007 -3.353009,3.054959 -4.662832,3.924894 l -2.21591,1.471724 l -1.827921,-0.01877 c -1.005358,-0.01032 -1.961727,-0.07277 -2.125264,-0.138758 z m 5.69335,-1.78993 c 1.309823,-0.869935 3.216456,-2.474825 4.662832,-3.924895 l 2.446925,-2.453171 l 2.938053,0 l 2.938052,0 l 0.561834,-2.20032 c 0.800343,-3.1344 0.773953,-7.915616 -0.06072,-11.001599 L 50.726439,34.177385 L 47.997024,33.988559 C 46.495847,33.884704 44.878179,33.69648 44.40221,33.570282 C 43.234711,33.260734 42.129756,32.13433 39.147656,28.213728 c -1.386123,-1.822352 -4.502085,-5.42525 -6.924359,-8.006441 c -2.422276,-2.58119 -4.457789,-4.882606 -4.523361,-5.114257 c -0.06557,-0.231651 -0.460383,-1.973301 -0.877354,-3.870333 C 26.405613,9.325664 26.033552,7.7393183 25.995783,7.6974842 C 25.8125,7.49448 23.967544,8.6741712 23.326538,9.4042368 c -1.555086,1.7711442 -1.642761,4.0827242 -0.25596,6.7483512 c 0.461141,0.88638 1.375354,2.647481 2.03158,3.913558 c 1.397745,2.696709 2.134562,5.224261 2.352135,8.068687 l 0.156429,2.045111 l -3.303049,0.165797 c -5.51942,0.277045 -8.394658,0.917899 -10.295258,2.294688 c -1.185564,0.858817 -1.691713,1.799308 -1.684912,3.130782 c 0.0073,1.426076 0.688722,2.777555 1.968483,3.904045 c 1.328441,1.169341 2.417458,1.51991 4.714319,1.517598 c 1.645385,-0.0017 1.993934,-0.104857 5.512405,-1.632152 l 3.75596,-1.630383 l -0.88419,-0.77633 c -1.813911,-1.592634 -3.327878,-1.791338 -6.228837,-0.81752 c -1.004212,0.337104 -2.341065,0.673936 -2.970783,0.748516 c -1.103026,0.130637 -1.183585,0.09768 -2.200464,-0.900314 c -1.462154,-1.434996 -1.39409,-1.650478 0.521339,-1.650478 c 1.121944,0 2.065537,-0.18205 3.270745,-0.631032 c 2.474444,-0.92182 5.403177,-0.921823 7.402825,-7e-6 c 1.729813,0.797422 2.514628,1.503034 3.719326,3.343984 c 1.054643,1.61164 1.118338,1.949236 0.410173,2.173999 c -0.471478,0.149641 -0.429733,0.229321 0.566065,1.080502 c 1.122605,0.959575 2.559545,2.974768 2.559545,3.589562 c 0,0.196499 -0.284022,0.486679 -0.631161,0.644846 l -0.631159,0.287575 l 0.507439,0.355425 c 0.682863,0.478297 2.65786,3.270879 2.65786,3.758132 c 0,0.22516 -0.447683,0.60666 -1.062321,0.905276 l -1.062324,0.516116 L 35.263,51.670684 c 0.95555,1.02156 2.035883,2.761264 2.035883,3.278462 c 0,0.118114 -0.967094,0.620296 -2.149096,1.115957 c -1.182003,0.495665 -2.205225,0.992026 -2.273828,1.103024 c -0.0686,0.111001 0.516828,0.201818 1.300956,0.201818 c 1.34994,0 1.543411,-0.07819 3.641593,-1.471723 z M 22.64078,57.028142 C 21.648093,56.596101 21.123558,55.79136 21.123558,54.70042 l 0,-0.898561 l 2.081384,-0.0044 c 2.002398,-0.0042 2.194221,-0.05424 5.054789,-1.318484 c 1.881328,-0.831461 3.162328,-1.266939 3.48779,-1.185682 c 0.641837,0.16025 2.459021,2.192958 2.459021,2.750671 c 0,0.304574 -0.890029,0.795881 -3.389682,1.871145 c -3.284602,1.412922 -3.452362,1.457784 -5.411598,1.447159 c -1.156241,-0.0063 -2.339842,-0.149337 -2.764482,-0.334149 z m 7.416325,-1.458941 c 1.693456,-0.728748 3.169307,-1.413133 3.27967,-1.520851 c 0.240313,-0.234557 -1.430334,-2.14947 -1.875281,-2.14947 c -0.171033,0 -1.537577,0.535213 -3.036765,1.189362 c -2.576786,1.124342 -2.837859,1.189362 -4.775612,1.189362 c -1.8057,0 -2.049814,0.05035 -2.049814,0.422816 c 0,1.299525 1.523257,2.170762 3.819289,2.18447 c 1.376463,0.0082 1.920887,-0.146206 4.638513,-1.315689 z M 18.916394,52.036796 c -1.628843,-0.438068 -2.312412,-1.159107 -2.312412,-2.439168 l 0,-1.028962 l 3.508619,0.0026 l 3.508618,0.0026 l 3.261423,-1.457937 c 2.251323,-1.006395 3.433744,-1.414684 3.817812,-1.318289 c 0.782522,0.196409 2.554598,1.892066 2.554598,2.444444 c 0,0.366297 -0.838329,0.834259 -4.113761,2.296328 l -4.113761,1.836275 l -2.487199,-0.01606 c -1.367959,-0.0088 -2.998731,-0.15363 -3.623937,-0.321774 z m 9.572599,-1.896319 c 2.153956,-0.966909 3.952726,-1.867344 3.997267,-2.000971 C 32.530802,48.005881 32.075997,47.521454 31.475581,47.063 l -1.091666,-0.833548 l -3.119459,1.40748 l -3.119459,1.407479 l -3.532634,0 l -3.532636,0 l 0,0.553217 c 0,1.374739 2.116474,2.258689 5.471066,2.285003 c 2.014979,0.01579 2.035351,0.0098 5.9382,-1.742154 z M 16.603982,46.976843 c -2.694414,-0.452179 -3.926415,-2.072592 -3.045595,-4.005781 c 0.212102,-0.465514 0.40907,-0.591679 0.773085,-0.495189 c 2.177679,0.577238 3.806471,0.850423 5.095566,0.854643 c 1.341317,0.0044 1.882665,-0.158462 4.727931,-1.422278 c 1.767245,-0.784979 3.418046,-1.427234 3.668445,-1.427234 c 1.125888,0 3.9524,2.177926 3.722315,2.868177 c -0.05368,0.161035 -1.902867,1.08017 -4.109308,2.04252 l -4.011711,1.74973 l -3.113024,-0.03239 c -1.712162,-0.01782 -3.380629,-0.0773 -3.707704,-0.132195 z m 10.280349,-2.0288 l 3.976732,-1.721409 l -0.646518,-0.680983 c -0.355583,-0.37454 -1.039374,-0.883078 -1.519531,-1.130082 l -0.873016,-0.449096 l -3.202229,1.422372 c -3.090643,1.37281 -3.27159,1.422199 -5.192731,1.417415 c -1.094776,-0.0027 -2.686279,-0.154552 -3.536673,-0.337391 c -1.389328,-0.29871 -1.576333,-0.293596 -1.843511,0.05042 c -0.430681,0.554545 -0.371606,0.880785 0.305125,1.685031 c 0.936637,1.113131 2.043604,1.379824 5.939026,1.430853 l 2.616597,0.03428 l 3.976729,-1.721407 z" id="path4331" inkscape:connector-curvature="0" />
   </g>
</svg>
