<?xml version="1.0" encoding="UTF-8" standalone="no"?>
<!-- Created with Inkscape (http://www.inkscape.org/) -->

<svg xmlns:dc="http://purl.org/dc/elements/1.1/" xmlns:cc="http://creativecommons.org/ns#" xmlns:rdf="http://www.w3.org/1999/02/22-rdf-syntax-ns#" xmlns:svg="http://www.w3.org/2000/svg" xmlns="http://www.w3.org/2000/svg" xmlns:sodipodi="http://sodipodi.sourceforge.net/DTD/sodipodi-0.dtd" xmlns:inkscape="http://www.inkscape.org/namespaces/inkscape" width="64" height="64" id="svg4312" version="1.1" inkscape:version="0.91 r13725" viewBox="0 0 64 64" sodipodi:docname="thumbs-down.svg">
   <defs id="defs4314" />
   <sodipodi:namedview id="base" pagecolor="#ffffff" bordercolor="#666666" borderopacity="1.0" inkscape:pageopacity="0.0" inkscape:pageshadow="2" inkscape:zoom="5.5" inkscape:cx="20.181818" inkscape:cy="39.272727" inkscape:current-layer="layer1" showgrid="true" inkscape:document-units="px" inkscape:grid-bbox="true" inkscape:window-width="1280" inkscape:window-height="752" inkscape:window-x="0" inkscape:window-y="0" inkscape:window-maximized="1" />
   <metadata id="metadata4317">
      <rdf:RDF>
         <cc:Work rdf:about="">
            <dc:format>image/svg+xml</dc:format>
            <dc:type rdf:resource="http://purl.org/dc/dcmitype/StillImage" />
            <dc:title></dc:title>
         </cc:Work>
      </rdf:RDF>
   </metadata>
   <g id="layer1" inkscape:label="Layer 1" inkscape:groupmode="layer">
      <path style="fill:black;fill-opacity:1;stroke:none" d="m 49.734215,5.5361649 c 2.51393,1.2361798 3.563585,3.3029118 2.912184,5.7339761 c -0.148867,0.555577 -0.05308,0.762167 0.474881,1.024209 c 0.363749,0.180536 1.10828,0.719563 1.654512,1.197833 c 1.21797,1.066425 1.688606,2.850184 1.216695,4.611382 c -0.303101,1.131188 -0.282311,1.192845 0.684631,2.030799 c 1.795829,1.556267 1.981498,4.063011 0.462889,6.249517 l -0.833986,1.200779 l 0.499451,1.456393 c 0.274698,0.801018 0.513935,2.142409 0.531638,2.980869 c 0.126913,6.01082 -6.081379,8.763345 -15.294253,6.780898 l -3.179119,-0.684087 l -0.135719,1.196494 c -0.247799,2.184535 -0.01606,4.767231 0.793207,8.840016 c 0.440333,2.216074 0.786784,4.818071 0.769892,5.782216 c -0.07531,4.297535 -2.922355,7.7786 -6.845556,8.370006 c -1.422828,0.214484 -4.087445,0.265969 -4.155965,0.0803 c -0.01811,-0.04906 0.07534,-2.451204 0.207655,-5.338086 l 0.24058,-5.248875 L 26.657219,46.070737 C 24.962879,42.919199 22.694104,38.203664 21.615502,35.59177 C 20.536895,32.979877 19.386464,30.403233 19.058984,29.865894 L 18.46357,28.888917 l -3.821187,-1.160123 l -3.821187,-1.160123 l -0.205258,-1.962352 c -0.6207798,-5.934915 1.07739,-12.537586 4.58933,-17.8438126 l 1.072234,-1.6200483 l 3.407226,0.8367881 l 3.407228,0.8367883 L 25.248904,5.551564 c 2.427176,-1.4228854 5.920924,-2.8837651 8.3772,-3.5028551 C 35.814851,1.4970511 37.851139,1.844848 41.101086,3.325435 c 2.222326,1.012434 2.527412,1.0974996 3.316692,0.9247636 c 0.944115,-0.2066175 3.575437,0.4298594 5.316437,1.2859653 z M 32.926887,4.3412714 C 31.277889,4.8959195 28.78058,6.0651427 26.819508,7.2007053 L 23.50184,9.1218055 L 20.361795,8.2804329 L 17.221751,7.4390606 l -1.230568,2.1907 C 14.220262,12.782417 12.757358,18.357211 12.767849,21.913176 l 0.0072,2.454247 l 2.862991,0.983432 c 1.574643,0.540889 3.249624,1.205307 3.722175,1.476484 c 1.159119,0.665168 2.017471,2.185439 4.081846,7.22957 c 0.959552,2.344586 3.257973,7.087505 5.107602,10.539822 c 1.84963,3.452318 3.366632,6.49503 3.371118,6.761585 c 0.0045,0.266555 -0.08078,2.300046 -0.189483,4.518869 c -0.108702,2.218825 -0.181492,4.077451 -0.161754,4.130281 c 0.01974,0.05283 0.677696,-0.03888 1.46213,-0.203802 c 3.914444,-0.822982 5.771038,-4.158299 4.788122,-8.601715 c -0.24155,-1.09197 -0.716365,-3.246257 -1.055139,-4.787301 c -0.692152,-3.148498 -0.778504,-6.114851 -0.263177,-9.04075 l 0.348202,-1.977024 l 3.574616,0.768064 c 5.975052,1.283836 9.232051,1.422186 11.657194,0.495171 c 1.579016,-0.60358 2.324347,-1.443863 2.765434,-3.11774 c 0.46728,-1.773276 0.178598,-3.343129 -0.917692,-4.990393 C 52.821826,26.887964 51.784236,26.236812 49.0896,25.514786 c -2.043191,-0.547471 -2.262495,-0.545018 -6.589187,0.07366 c -2.46161,0.351993 -4.513545,0.770399 -4.559857,0.929794 c -0.120157,0.413273 1.209924,2.327631 2.088539,3.006126 c 1.124833,0.868631 3.105186,1.283833 5.43329,1.139143 c 1.151882,-0.07159 2.582148,-0.06625 3.178369,0.01187 c 1.017372,0.133297 1.134545,0.232349 1.90531,1.610581 l 0.821271,1.468549 l -1.738201,-0.465749 c -1.251461,-0.335328 -2.295469,-0.413763 -3.728265,-0.280091 c -2.860874,0.2669 -5.558496,-0.455969 -7.403292,-1.983823 c -1.622636,-1.343861 -2.257264,-2.320057 -3.023423,-4.650682 l -0.585128,-1.779932 l 0.872589,-0.190964 l 0.872588,-0.190961 l -0.957127,-1.20581 c -0.8364,-1.053715 -2.229121,-4.151808 -2.093666,-4.657333 c 0.02652,-0.09898 0.429519,-0.230163 0.895549,-0.291516 c 1.026992,-0.135207 1.105836,-0.326872 0.440802,-1.071559 C 34.453807,16.46433 32.904146,12.748977 33.001277,12.386478 c 0.02271,-0.08475 0.702311,-0.293077 1.510222,-0.462934 l 1.46893,-0.308833 L 35.073646,9.9378762 C 34.574917,9.0156154 34.05496,7.7358786 33.91819,7.0940119 L 33.669513,5.9269861 L 36.555874,5.527202 c 1.5875,-0.2198822 2.952114,-0.4296124 3.032473,-0.4660692 C 40.007572,4.8709415 38.913488,4.2673945 37.414924,3.8621739 C 35.75541,3.4133674 35.65288,3.4243654 32.926887,4.3412714 Z m 7.860072,2.6316868 c -2.222158,0.3232156 -4.061657,0.6674134 -4.087775,0.7648869 c -0.07762,0.2896928 1.173362,2.7670819 1.598595,3.1657709 c 0.299338,0.280657 1.228485,0.238388 3.906399,-0.177704 c 3.37485,-0.524379 3.60156,-0.522587 5.739375,0.04542 l 2.225749,0.591314 l 0.189201,-0.70611 C 50.813805,8.9573298 49.590177,7.6928867 46.730819,6.9078551 c -1.780595,-0.488849 -2.164547,-0.4846604 -5.943845,0.065047 z m 0.317092,6.2141368 c -2.665568,0.426232 -4.90158,0.80419 -4.968917,0.839909 c -0.273668,0.145167 0.38541,1.508685 1.185792,2.453196 l 0.853091,1.006714 l 3.914365,-0.625996 l 3.914369,-0.625993 l 3.749087,1.007567 l 3.749085,1.007567 l 0.226545,-0.845478 c 0.47668,-1.778992 -1.293451,-3.205512 -5.372651,-4.329731 l -2.404312,-0.66262 l -4.846482,0.774969 z m 1.113491,5.877977 c -2.170415,0.330705 -4.382596,0.660511 -4.915954,0.732903 l -0.96974,0.131621 l 0.696755,1.240689 c 0.383216,0.682378 1.089071,1.56148 1.568561,1.953553 l 0.871807,0.712862 l 4.038674,-0.630218 l 4.038671,-0.630217 l 2.518666,0.819689 c 1.385266,0.450825 2.981894,1.135054 3.54806,1.520507 c 0.791794,0.539059 1.094846,0.642395 1.312963,0.447695 c 1.505731,-1.344066 0.786289,-3.527692 -1.536863,-4.664646 c -0.596003,-0.291685 -2.465534,-0.914045 -4.154514,-1.383026 l -3.070876,-0.852685 l -3.946211,0.601278 z" id="path4892" inkscape:connector-curvature="0" />
      <path style="fill:none;stroke:none" d="m 22.866307,59.262368 c -2.483812,-0.491123 -3.8836,-2.049835 -3.8836,-4.324513 c 0,-0.51984 -0.131946,-0.677785 -0.654149,-0.783045 c -0.359783,-0.07252 -1.135841,-0.368929 -1.724576,-0.658681 c -1.307829,-0.643664 -2.140497,-2.093577 -2.14154,-3.729036 c -6.66e-4,-1.043667 -0.03789,-1.099225 -1.121663,-1.674172 C 12.724242,47.765847 12.024956,47.160683 11.786808,46.748112 C 11.147178,45.640009 11.000179,43.83166 11.443879,42.529473 L 11.81555,41.438678 L 11.019792,40.11719 C 9.0184805,36.793684 9.4053812,33.138341 11.983393,31.013325 c 2.167033,-1.786251 5.586354,-2.856413 9.798275,-3.066613 l 2.9179,-0.145623 L 24.54464,26.945407 c -0.346174,-1.911945 -1.174281,-4.11822 -2.731827,-7.27824 C 19.894141,15.774479 19.340979,13.865659 19.538122,11.817791 C 19.925157,7.7973635 22.078864,5.5233591 26.417685,4.5539564 C 27.170763,4.3857 27.821601,4.2919775 27.863995,4.3456841 c 0.04239,0.053707 0.535082,2.184979 1.094862,4.7361607 l 1.017782,4.6385122 l 4.029723,4.281703 c 2.216351,2.354937 5.300024,5.940864 6.852608,7.968726 c 1.552586,2.027863 3.159628,4.008151 3.571209,4.40064 l 0.748325,0.713617 l 3.607248,0.118937 l 3.607247,0.118936 l 0.638219,1.665107 c 1.073447,2.800617 1.467646,5.138777 1.463795,8.682343 c -0.0037,3.407104 -0.336703,5.576431 -1.296264,8.444471 l -0.557095,1.665107 l -3.170228,0.0665 l -3.170228,0.0665 l -1.58722,1.608425 c -1.794745,1.81872 -4.495768,3.90321 -6.522643,5.033789 c -1.746526,0.974204 -4.066374,1.180853 -7.175252,0.639168 c -1.854889,-0.323195 -2.202968,-0.326504 -2.783189,-0.02646 c -0.728541,0.376745 -3.67663,0.428658 -5.366587,0.0945 z m 4.977664,-0.615143 c 0.695786,-0.359806 0.942595,-0.357629 3.415802,0.0301 c 3.455592,0.54174 4.76199,0.384059 6.829917,-0.824368 c 2.159249,-1.261794 4.265183,-2.910119 6.148543,-4.812502 l 1.58722,-1.603253 l 3.170228,-0.0665 l 3.170228,-0.0665 l 0.557095,-1.665107 C 54.52323,44.258377 54.462972,38.44042 52.555473,33.463768 L 51.917254,31.798661 L 48.310007,31.679724 L 44.70276,31.560788 l -0.748326,-0.713617 c -0.411581,-0.39249 -2.018623,-2.372777 -3.571209,-4.40064 C 38.830641,24.418669 35.746249,20.832742 33.529026,18.477805 L 29.497707,14.196102 L 28.47051,9.5332113 L 27.443312,4.8703208 l -1.079719,0.2848244 c -3.83226,1.0109313 -5.768922,3.0559181 -6.327754,6.6816898 c -0.230453,1.4952 0.434172,3.665037 2.252719,7.354588 c 1.74825,3.546928 2.550877,5.810383 2.794044,7.879376 l 0.150288,1.278712 l -1.876261,0.0047 c -5.508647,0.01384 -10.307557,1.82305 -12.150648,4.580859 c -1.398192,2.09211 -1.2205046,4.481395 0.526318,7.077164 l 0.838325,1.245745 l -0.494347,1.32126 c -0.831255,2.221726 -0.155599,4.142117 1.789879,5.087304 c 1.040151,0.505345 1.07272,0.554309 1.07272,1.612729 c 0,1.647904 0.828115,3.095025 2.140851,3.741103 c 0.588735,0.289752 1.364793,0.586158 1.724575,0.658681 c 0.522204,0.105261 0.65415,0.263206 0.65415,0.783045 c 0,1.650425 0.823404,3.052831 2.218493,3.778496 c 1.552003,0.807287 4.957949,1.031857 6.167026,0.406619 z m 4.281187,-0.959073 c -0.66698,-0.269131 -0.269835,-0.923371 0.833445,-1.372983 c 0.620952,-0.253053 1.69378,-0.707875 2.384067,-1.010715 l 1.255063,-0.55062 l -0.392766,-0.759529 c -0.216024,-0.41774 -0.914605,-1.311293 -1.552405,-1.985673 c -0.6378,-0.67438 -1.159638,-1.350997 -1.159638,-1.503594 c 0,-0.152598 0.481692,-0.511471 1.070426,-0.797501 c 0.588734,-0.286029 1.070426,-0.593991 1.070426,-0.684359 c 0,-0.34124 -2.139762,-3.053787 -2.605619,-3.303106 c -0.666428,-0.356663 -0.611643,-1.061955 0.107959,-1.389829 c 0.327074,-0.149024 0.592026,-0.35353 0.588784,-0.454457 c -0.01489,-0.46343 -1.789105,-2.544655 -2.741651,-3.216071 C 29.770081,39.804595 29.677061,39.4809 30.53249,39.091141 l 0.60765,-0.276864 l -0.429245,-0.743485 c -2.222038,-3.848723 -6.195097,-5.249639 -10.44867,-3.684239 c -1.106993,0.407397 -2.173981,0.623385 -3.079535,0.623385 l -1.38565,0 l 0.819748,0.847169 c 0.939865,0.971299 1.19582,0.969078 4.191903,-0.03641 c 1.939025,-0.650738 4.181003,-0.752907 5.394597,-0.245837 c 1.151265,0.481031 2.533125,1.77931 2.526469,2.373656 c -0.0048,0.431434 -0.58813,0.759443 -3.763232,2.11621 c -3.740517,1.598377 -3.767535,1.605639 -5.972962,1.605639 c -2.761764,0 -3.790459,-0.302119 -5.173322,-1.519365 c -1.410978,-1.241991 -1.961816,-2.467584 -1.968483,-4.37979 c -0.0063,-1.815526 0.393273,-2.670867 1.684912,-3.606527 c 1.899653,-1.376101 4.776309,-2.017676 10.286826,-2.294253 l 3.294621,-0.165357 l -0.157954,-1.569803 c -0.253615,-2.520511 -1.053685,-5.123717 -2.33375,-7.59338 c -0.656226,-1.266077 -1.577829,-3.042069 -2.048005,-3.946649 c -0.700813,-1.348304 -0.870566,-1.955576 -0.941982,-3.369836 c -0.102649,-2.03272 0.216128,-3.159984 1.215475,-4.2981764 C 23.552528,8.1292599 25.539308,6.940993 26.172886,6.940993 c 0.204489,0 0.578422,1.2566339 1.114834,3.746491 c 0.443927,2.060569 0.906168,3.942494 1.027202,4.182054 c 0.121037,0.239559 2.148428,2.487454 4.505321,4.99532 c 2.356889,2.507867 5.418833,6.050773 6.804319,7.873125 c 2.980068,3.919736 4.085535,5.046911 5.253393,5.356554 c 0.475969,0.126199 2.093637,0.314422 3.594814,0.418277 l 2.729414,0.188826 l 0.581641,2.140852 c 0.497556,1.831353 0.584412,2.691072 0.600799,5.94681 c 0.01641,3.261857 -0.06116,4.120519 -0.542675,6.006279 L 51.280115,49.9959 l -2.938052,0 l -2.938053,0 l -2.446925,2.453172 c -1.446376,1.45007 -3.353009,3.054959 -4.662832,3.924894 l -2.21591,1.471724 l -1.827921,-0.01877 c -1.005358,-0.01032 -1.961727,-0.07277 -2.125264,-0.138758 z m 5.69335,-1.78993 c 1.309823,-0.869935 3.216456,-2.474825 4.662832,-3.924895 l 2.446925,-2.453171 l 2.938053,0 l 2.938052,0 l 0.561834,-2.20032 c 0.800343,-3.1344 0.773953,-7.915616 -0.06072,-11.001599 L 50.726439,34.177385 L 47.997024,33.988559 C 46.495847,33.884704 44.878179,33.69648 44.40221,33.570282 C 43.234711,33.260734 42.129756,32.13433 39.147656,28.213728 c -1.386123,-1.822352 -4.502085,-5.42525 -6.924359,-8.006441 c -2.422276,-2.58119 -4.457789,-4.882606 -4.523361,-5.114257 c -0.06557,-0.231651 -0.460383,-1.973301 -0.877354,-3.870333 C 26.405613,9.325664 26.033552,7.7393183 25.995783,7.6974842 C 25.8125,7.49448 23.967544,8.6741712 23.326538,9.4042368 c -1.555086,1.7711442 -1.642761,4.0827242 -0.25596,6.7483512 c 0.461141,0.88638 1.375354,2.647481 2.03158,3.913558 c 1.397745,2.696709 2.134562,5.224261 2.352135,8.068687 l 0.156429,2.045111 l -3.303049,0.165797 c -5.51942,0.277045 -8.394658,0.917899 -10.295258,2.294688 c -1.185564,0.858817 -1.691713,1.799308 -1.684912,3.130782 c 0.0073,1.426076 0.688722,2.777555 1.968483,3.904045 c 1.328441,1.169341 2.417458,1.51991 4.714319,1.517598 c 1.645385,-0.0017 1.993934,-0.104857 5.512405,-1.632152 l 3.75596,-1.630383 l -0.88419,-0.77633 c -1.813911,-1.592634 -3.327878,-1.791338 -6.228837,-0.81752 c -1.004212,0.337104 -2.341065,0.673936 -2.970783,0.748516 c -1.103026,0.130637 -1.183585,0.09768 -2.200464,-0.900314 c -1.462154,-1.434996 -1.39409,-1.650478 0.521339,-1.650478 c 1.121944,0 2.065537,-0.18205 3.270745,-0.631032 c 2.474444,-0.92182 5.403177,-0.921823 7.402825,-7e-6 c 1.729813,0.797422 2.514628,1.503034 3.719326,3.343984 c 1.054643,1.61164 1.118338,1.949236 0.410173,2.173999 c -0.471478,0.149641 -0.429733,0.229321 0.566065,1.080502 c 1.122605,0.959575 2.559545,2.974768 2.559545,3.589562 c 0,0.196499 -0.284022,0.486679 -0.631161,0.644846 l -0.631159,0.287575 l 0.507439,0.355425 c 0.682863,0.478297 2.65786,3.270879 2.65786,3.758132 c 0,0.22516 -0.447683,0.60666 -1.062321,0.905276 l -1.062324,0.516116 L 35.263,51.670684 c 0.95555,1.02156 2.035883,2.761264 2.035883,3.278462 c 0,0.118114 -0.967094,0.620296 -2.149096,1.115957 c -1.182003,0.495665 -2.205225,0.992026 -2.273828,1.103024 c -0.0686,0.111001 0.516828,0.201818 1.300956,0.201818 c 1.34994,0 1.543411,-0.07819 3.641593,-1.471723 z M 22.64078,57.028142 C 21.648093,56.596101 21.123558,55.79136 21.123558,54.70042 l 0,-0.898561 l 2.081384,-0.0044 c 2.002398,-0.0042 2.194221,-0.05424 5.054789,-1.318484 c 1.881328,-0.831461 3.162328,-1.266939 3.48779,-1.185682 c 0.641837,0.16025 2.459021,2.192958 2.459021,2.750671 c 0,0.304574 -0.890029,0.795881 -3.389682,1.871145 c -3.284602,1.412922 -3.452362,1.457784 -5.411598,1.447159 c -1.156241,-0.0063 -2.339842,-0.149337 -2.764482,-0.334149 z m 7.416325,-1.458941 c 1.693456,-0.728748 3.169307,-1.413133 3.27967,-1.520851 c 0.240313,-0.234557 -1.430334,-2.14947 -1.875281,-2.14947 c -0.171033,0 -1.537577,0.535213 -3.036765,1.189362 c -2.576786,1.124342 -2.837859,1.189362 -4.775612,1.189362 c -1.8057,0 -2.049814,0.05035 -2.049814,0.422816 c 0,1.299525 1.523257,2.170762 3.819289,2.18447 c 1.376463,0.0082 1.920887,-0.146206 4.638513,-1.315689 z M 18.916394,52.036796 c -1.628843,-0.438068 -2.312412,-1.159107 -2.312412,-2.439168 l 0,-1.028962 l 3.508619,0.0026 l 3.508618,0.0026 l 3.261423,-1.457937 c 2.251323,-1.006395 3.433744,-1.414684 3.817812,-1.318289 c 0.782522,0.196409 2.554598,1.892066 2.554598,2.444444 c 0,0.366297 -0.838329,0.834259 -4.113761,2.296328 l -4.113761,1.836275 l -2.487199,-0.01606 c -1.367959,-0.0088 -2.998731,-0.15363 -3.623937,-0.321774 z m 9.572599,-1.896319 c 2.153956,-0.966909 3.952726,-1.867344 3.997267,-2.000971 C 32.530802,48.005881 32.075997,47.521454 31.475581,47.063 l -1.091666,-0.833548 l -3.119459,1.40748 l -3.119459,1.407479 l -3.532634,0 l -3.532636,0 l 0,0.553217 c 0,1.374739 2.116474,2.258689 5.471066,2.285003 c 2.014979,0.01579 2.035351,0.0098 5.9382,-1.742154 z M 16.603982,46.976843 c -2.694414,-0.452179 -3.926415,-2.072592 -3.045595,-4.005781 c 0.212102,-0.465514 0.40907,-0.591679 0.773085,-0.495189 c 2.177679,0.577238 3.806471,0.850423 5.095566,0.854643 c 1.341317,0.0044 1.882665,-0.158462 4.727931,-1.422278 c 1.767245,-0.784979 3.418046,-1.427234 3.668445,-1.427234 c 1.125888,0 3.9524,2.177926 3.722315,2.868177 c -0.05368,0.161035 -1.902867,1.08017 -4.109308,2.04252 l -4.011711,1.74973 l -3.113024,-0.03239 c -1.712162,-0.01782 -3.380629,-0.0773 -3.707704,-0.132195 z m 10.280349,-2.0288 l 3.976732,-1.721409 l -0.646518,-0.680983 c -0.355583,-0.37454 -1.039374,-0.883078 -1.519531,-1.130082 l -0.873016,-0.449096 l -3.202229,1.422372 c -3.090643,1.37281 -3.27159,1.422199 -5.192731,1.417415 c -1.094776,-0.0027 -2.686279,-0.154552 -3.536673,-0.337391 c -1.389328,-0.29871 -1.576333,-0.293596 -1.843511,0.05042 c -0.430681,0.554545 -0.371606,0.880785 0.305125,1.685031 c 0.936637,1.113131 2.043604,1.379824 5.939026,1.430853 l 2.616597,0.03428 l 3.976729,-1.721407 z" id="path4331" inkscape:connector-curvature="0" />
   </g>
</svg>
